<?xml version="1.0" encoding="UTF-8"?>
<svg width="58px" height="60px" viewBox="0 0 58 60" version="1.1" xmlns="http://www.w3.org/2000/svg" xmlns:xlink="http://www.w3.org/1999/xlink">
    <title>6B90FBAB-55D4-4125-B05C-09BE6B52594F@2x</title>
    <defs>
        <polygon id="path-1" points="0 0 58 0 58 60 0 60"></polygon>
    </defs>
    <g id="Dynamic-Tender" stroke="none" stroke-width="1" fill="none" fill-rule="evenodd">
        <g id="001a.-Lobby-No-Preferability" transform="translate(-1614.000000, -80.000000)">
            <g id="Comp/Mid-Nav" transform="translate(0.000000, 60.000000)">
                <g id="Mid-Nav" transform="translate(250.000000, 20.000000)">
                    <g id="Site-Title-and-Nav" transform="translate(1034.000000, 0.000000)">
                        <g id="LOGO---Dynamic" transform="translate(234.000000, 0.000000)">
                            <g id="Dynamic-Logo" transform="translate(96.000000, 0.000000)">
                                <g id="Group-3">
                                    <mask id="mask-2" fill="white">
                                        <use xlink:href="#path-1"></use>
                                    </mask>
                                    <g id="Clip-2"></g>
                                    <path d="M12.9752296,60 C3.53986037,58.1480803 0.368305635,50.0490019 0.0278756142,46.63989 L0.000954476696,46.2679016 L-2.44737598e-05,26.5037658 L3.17691449,23.396663 L3.17789344,46.4247686 C4.11193455,53.6715073 10.3985096,58.0768669 14.4354566,58.0768669 L43.5646168,58.0768669 C47.6015638,58.0768669 53.8881389,53.6715073 54.82218,46.4247686 L54.8230366,23.396663 L58.0000979,26.5037658 L57.9991189,46.2679016 L57.9721978,46.63989 C57.6316454,50.0490019 54.460213,58.1480803 45.0248438,60 L12.9752296,60 Z M41.804831,56.2943094 L16.1952424,56.2943094 C14.9688622,56.2433369 12.063582,55.3900098 9.19011766,51.4904261 C6.61682402,47.9982524 5.69220532,44.1082954 5.49139811,42.2539074 L5.45737958,41.8631591 L5.44673349,41.5513998 L5.44673349,21.235946 L8.62367246,18.1519228 L8.62367246,41.7008616 C9.00778814,45.4143277 9.83708155,48.2828593 11.111675,50.3062096 C12.3862685,52.3295598 14.1169306,53.525131 16.3036611,53.8927997 L41.6964123,53.8927997 C43.8831429,53.525131 45.6136825,52.3295598 46.888276,50.3062096 C48.1628695,48.2828593 48.9922853,45.4143277 49.376401,41.7008616 L49.376401,18.1519228 L52.5533399,21.235946 L52.5533399,41.5513998 L52.5426938,41.8631591 C52.4403935,43.5074861 51.5812421,47.7295667 48.8099558,51.4904261 C45.9364914,55.3900098 43.0312112,56.2433369 41.804831,56.2943094 L41.804831,56.2943094 Z M20.0573243,51.4904261 C18.0063007,51.4904261 15.7265699,50.6751124 13.6656344,47.9652992 C12.2916774,46.1586747 11.5900147,43.8254164 11.5606462,40.9655242 L11.5606462,15.3694151 L16.326177,10.7084523 L16.326177,42.7959688 C16.4979828,44.5897575 17.0580648,46.08092 18.0063007,47.2693328 C18.954659,48.4577457 20.5196337,49.0637387 22.7013471,49.087312 L35.2987263,49.087312 C37.4804398,49.0637387 39.0454144,48.4577457 39.9936503,47.2693328 C40.9420086,46.08092 41.5019682,44.5897575 41.673774,42.7959688 L41.673774,10.7084523 L46.4394272,15.3694151 L46.4394272,40.9655242 C46.4100587,43.8254164 45.708396,46.1586747 44.334439,47.9652992 C42.2735036,50.6751124 39.9936503,51.4904261 37.9426268,51.4904261 L20.0573243,51.4904261 Z M30.5544877,-9.87361364e-05 L38.4968351,7.68095557 L38.4968351,45.8830775 L30.5544877,45.8830775 L30.5544877,-9.87361364e-05 Z M27.4455858,-9.87361364e-05 L27.4455858,45.8830775 L19.5032383,45.8830775 L19.5032383,7.68095557 L27.4455858,-9.87361364e-05 Z" id="Fill-1" fill="#394053" mask="url(#mask-2)"></path>
                                </g>
                                <g id="Group-18" transform="translate(15.263158, 15.254237)"></g>
                                <path d="M54.013603,50.6774169 L34.7298464,31.4118997 L38.2745966,27.8695161 C38.5291246,27.9411633 38.7916828,27.9797095 39.0561051,27.9841517 C40.292179,27.9832919 41.4063662,27.2388769 41.8794298,26.0976794 C42.3526367,24.9564819 42.0917993,23.6427579 41.218374,22.768518 L32.5736001,14.1222705 C31.5995108,13.1399866 30.0853919,12.936795 28.8864576,13.6274745 C27.6876667,14.3182974 27.1049052,15.7293184 27.4674104,17.0639635 L16.0530853,28.4716396 C14.7183549,28.112257 13.3086284,28.695179 12.6181764,29.8919748 C11.9277245,31.0887706 12.1293393,32.5999545 13.1093079,33.5742139 L21.7602478,42.2190285 C22.9545935,43.4120986 24.8905835,43.4120986 26.0849291,42.2190285 C26.8525281,41.4476741 27.1503617,40.3259647 26.8664376,39.2757592 L30.4111878,35.7335189 L49.6889217,54.9990361 C50.4568075,55.7936042 51.5939382,56.1121479 52.6632425,55.8325803 C53.7326902,55.5528694 54.5676853,54.7183222 54.8475944,53.649775 C55.1275035,52.5810845 54.8087341,51.4447591 54.013603,50.6774169" id="Fill-4" stroke="#FFFFFF" stroke-width="2.5" fill="#394053" stroke-linejoin="round"></path>
                            </g>
                        </g>
                    </g>
                </g>
            </g>
        </g>
    </g>
</svg>