<?xml version="1.0" encoding="UTF-8"?>
<svg width="151px" height="34px" viewBox="0 0 151 34" version="1.1" xmlns="http://www.w3.org/2000/svg" xmlns:xlink="http://www.w3.org/1999/xlink">
    <title>16C350A0-426B-45AE-98D7-FC71DE6769C5</title>
    <defs>
        <polygon id="path-1" points="0 0 16.0054845 0 16.0054845 25.6176471 0 25.6176471"></polygon>
        <polygon id="path-3" points="0 0 26.0089122 0 26.0089122 20.6911765 0 20.6911765"></polygon>
    </defs>
    <g id="Dynamic-Tender" stroke="none" stroke-width="1" fill="none" fill-rule="evenodd">
        <g id="001a.-Lobby-No-Preferability" transform="translate(-1519.000000, -13.000000)">
            <g id="Logo" transform="translate(1519.698189, 13.250000)">
                <g transform="translate(124.042505, 0.000000)">
                    <path d="M9.7492109,28.5696402 L11.577683,28.5696402 L11.577683,28.5735294 L15.2631035,28.5711959 C19.5427774,28.5688624 23.0108795,25.7297664 23.0078839,20.5237198 L23.001887,9.38668493 L21.2483522,7.88235294 L21.151683,20.0274614 C21.2093848,24.2674374 18.5498571,26.5099344 14.8269679,26.5122679 L13.4346314,26.5130457 L13.4346314,26.5099344 L10.1838477,26.5099344 C6.46170793,26.5099344 3.80068148,24.2689931 3.85613514,20.0297949 L3.75347093,7.88468644 L2.00068556,9.38901844 L2.00068556,20.5268311 C2.00068556,25.7320999 5.46953699,28.5696402 9.7492109,28.5696402" id="Fill-1" fill="#FFFFFF"></path>
                    <g id="Group-5" transform="translate(5.001714, 0.000000)">
                        <mask id="mask-2" fill="white">
                            <use xlink:href="#path-1"></use>
                        </mask>
                        <g id="Clip-4"></g>
                        <path d="M7.0793049,25.6037696 L7.0793049,25.6176471 L8.29339039,25.6168761 C8.36054939,25.6168761 8.42546976,25.6137922 8.49188255,25.6137922 L8.92990847,25.6137922 L8.92990847,25.6068535 C12.8930357,25.5020015 16.0084672,24.3424622 16.0054845,18.4113876 L15.9995126,7.37186385 L13.8369928,5.52693191 L13.8437087,17.8015501 C13.8452011,20.7605341 13.2183838,22.1953099 12.0804118,22.8968929 L12.0707111,4.07982065 L8.22399275,0.000616776243 L8.23518592,23.5576144 L8.08072022,23.5645531 C7.99341352,23.5645531 7.91207651,23.5637822 7.82700844,23.5637822 L7.3345091,23.5406531 L7.3345091,-0.000154194061 L3.4892832,4.08213356 L3.4892832,22.5700014 C2.62815556,21.7782149 2.16177361,20.3573167 2.16177361,17.8015501 L2.16177361,5.52693191 L0,7.37340579 L0,18.4121586 C0,24.3432331 3.11617764,25.5020015 7.0793049,25.6037696" id="Fill-3" fill="#FFFFFF" mask="url(#mask-2)"></path>
                    </g>
                    <g id="Group-8" transform="translate(0.000000, 9.852941)">
                        <mask id="mask-4" fill="white">
                            <use xlink:href="#path-3"></use>
                        </mask>
                        <g id="Clip-7"></g>
                        <path d="M26.0027766,1.4688188 L24.2528942,0 L24.2383246,11.9936653 C24.2406251,15.8640223 21.2853023,18.925555 17.4757424,18.9278926 L13.9560404,18.9302303 L13.9560404,18.9271134 L8.53615931,18.9271134 C4.72736626,18.9271134 1.77050982,15.8671392 1.77050982,11.9967821 L1.74903887,0.00311685688 L-7.6681962e-05,1.47271488 L-7.6681962e-05,12.6295041 C-7.6681962e-05,17.0795965 3.55029815,20.6873583 7.92960499,20.6873583 L12.057395,20.6873583 L12.057395,20.6912544 L18.0838304,20.6881375 C22.4631372,20.6850207 26.0112116,17.0757004 26.0089122,12.625608 L26.0027766,1.4688188 Z" id="Fill-6" fill="#FFFFFF" mask="url(#mask-4)"></path>
                    </g>
                </g>
                <g id="משרד-הביטחון" transform="translate(51.017482, 7.882353)" fill="#FFFFFF" fill-rule="nonzero">
                    <path d="M59.6460597,6.7824138 L59.7415262,5.93311683 C60.314325,6.06868536 60.7739784,6.05273612 61.1204863,5.88526912 C61.4669943,5.71780211 61.7180357,5.40878561 61.8736107,4.95821961 C62.0291857,4.50765362 62.0999016,3.93148736 62.0857584,3.22972086 C62.0786868,2.63959902 62.0115067,2.17507744 61.8842181,1.83615612 C61.7569295,1.49723479 61.5872113,1.2540089 61.3750636,1.10647844 C61.1629159,0.958947983 60.918946,0.885182753 60.643154,0.885182753 C60.3744335,0.885182753 60.1463747,0.948979709 59.9589776,1.07657362 C59.7715804,1.20416753 59.623077,1.37362819 59.5134674,1.58495561 C59.4038577,1.79628302 59.3278381,2.02954064 59.2854086,2.28472846 L59.0202239,1.73447972 C59.1475126,1.12840865 59.3773393,0.687810923 59.709704,0.412686554 C60.0420688,0.137562185 60.4062557,-6.53072367e-18 60.8022647,-6.53072367e-18 C61.1204863,-6.53072367e-18 61.4121894,0.0578159907 61.6773741,0.173447972 C61.9425587,0.289079953 62.1741533,0.474489854 62.3721578,0.729677675 C62.5701624,0.984865496 62.7257374,1.31780586 62.8388828,1.72849876 C62.9520283,2.13919165 63.0121368,2.63959902 63.0192084,3.22972086 C63.0404232,4.13882747 62.9202061,4.88844169 62.6585573,5.47856353 C62.3969084,6.06868536 62.0115067,6.47738461 61.5023522,6.70466126 C60.9931977,6.93193791 60.3744335,6.95785543 59.6460597,6.7824138 Z M57.0801652,6.89705882 L57.965317,2.10983374 L57.0195384,-6.53072367e-18 L58.1714482,-6.53072367e-18 L59.0202239,2.15918657 L58.195699,6.89705882 L57.0801652,6.89705882 Z" id="Shape"></path>
                    <path d="M49.8015679,6.89705882 L49.0167961,-8.75116972e-16 L49.989471,-8.75116972e-16 L50.6416053,5.93947069 C51.208999,5.89906613 51.7045474,5.78593335 52.1282504,5.60007237 C52.5519535,5.41421138 52.9038113,5.15360195 53.1838238,4.81824408 C53.4638362,4.48288621 53.6720034,4.06873945 53.8083252,3.57580378 C53.9446471,3.08286812 54.0091237,2.50912333 54.0017549,1.85456942 L53.9907018,-8.75116972e-16 L55.0075892,-8.75116972e-16 L55.0186423,1.80608395 C55.026011,2.94549261 54.8399501,3.89095937 54.4604595,4.64248423 C54.080969,5.3940091 53.5043643,5.95765274 52.7306457,6.33341518 C51.956927,6.70917761 50.9805678,6.89705882 49.8015679,6.89705882 Z M50.2118959,3.94117647 L50.0171389,3.22973201 C50.3240287,3.06410472 50.5645241,2.88153829 50.7386251,2.6820327 C50.912726,2.48252711 51.0381377,2.22467554 51.1148602,1.908478 C51.1915827,1.59228047 51.2299439,1.18574077 51.2299439,0.688858925 L51.2387965,1.34532908e-15 L52.0178245,1.34532908e-15 L52.0089719,0.666273386 C52.0030702,1.23091185 51.9425775,1.71650093 51.8274938,2.12304062 C51.7124101,2.52958031 51.5250302,2.87777403 51.2653542,3.16762178 C51.0056782,3.45746952 50.6545255,3.71532109 50.2118959,3.94117647 Z" id="Shape"></path>
                    <path d="M46.0265242,6.89705882 L46.0265242,2.25789224 C46.0265242,1.74791294 45.9297168,1.39216125 45.7361021,1.19063717 C45.5424874,0.989113087 45.2843344,0.888351047 44.9616432,0.888351047 L43.0147395,0.888351047 L43.0147395,-8.75116972e-16 L45.1982834,-8.75116972e-16 C45.5568292,-8.75116972e-16 45.8723495,0.0760856221 46.1448443,0.228256866 C46.4173391,0.38042811 46.6306739,0.625135922 46.7848485,0.962380301 C46.9390232,1.29962468 47.0161106,1.74791294 47.0161106,2.30724508 L47.0161106,6.89705882 L46.0265242,6.89705882 Z" id="Path"></path>
                    <path d="M39.8397385,6.89705882 L39.8397385,2.3319215 C39.8397385,2.01935354 39.8683524,1.74174384 39.9255803,1.49909239 C39.9828081,1.25644095 40.0610195,1.0528605 40.1602144,0.888351047 L37.0126828,0.888351047 L37.0126828,-8.75116972e-16 L42.0143967,-8.75116972e-16 L42.0143967,0.888351047 L41.155979,0.888351047 C41.0491537,1.09398786 40.9785727,1.3304702 40.9442359,1.59779806 C40.9098992,1.86512593 40.8927309,2.10983374 40.8927309,2.3319215 L40.8927309,6.89705882 L39.8397385,6.89705882 Z" id="Path"></path>
                    <path d="M31.9436605,6.89705882 L31.9436605,2.25789224 C31.9436605,1.74791294 31.8392163,1.39216125 31.630328,1.19063717 C31.4214398,0.989113087 31.142922,0.888351047 30.7947749,0.888351047 L28.0095978,0.888351047 L28.0095978,4.57150657e-16 L31.0500828,4.57150657e-16 C31.436913,4.57150657e-16 31.7773235,0.0760856221 32.0713144,0.228256866 C32.3653053,0.38042811 32.5954693,0.625135922 32.7618062,0.962380301 C32.9281432,1.29962468 33.0113117,1.74791294 33.0113117,2.30724508 L33.0113117,6.89705882 L31.9436605,6.89705882 Z M28.0095978,6.89705882 L28.0095978,3.73712148 L28.1509506,2.95588235 L29.0099406,2.95588235 L29.0099406,3.73712148 L29.0099406,6.89705882 L28.0095978,6.89705882 Z" id="Shape"></path>
                    <path d="M25.0272425,6.89705882 L25.0272425,2.25789224 C25.0272425,1.74791294 24.9312096,1.39216125 24.7391438,1.19063717 C24.547078,0.989113087 24.2909902,0.888351047 23.9708806,0.888351047 L22.0075411,0.888351047 L22.0075411,4.57150657e-16 L24.2056277,4.57150657e-16 C24.5613051,4.57150657e-16 24.8743012,0.0760856221 25.1446161,0.228256866 C25.4149309,0.38042811 25.626559,0.625135922 25.7795003,0.962380301 C25.9324416,1.29962468 26.0089122,1.74791294 26.0089122,2.30724508 L26.0089122,6.89705882 L25.0272425,6.89705882 Z M22.0075411,6.83005882 L22.0075411,5.97876471 L27.009255,5.97876471 L27.009255,6.83005882 L22.0075411,6.83005882 Z" id="Shape"></path>
                    <polygon id="Path" points="19.1303648 3.94117647 19.1303648 3.02646216 19.1303648 1.321254 19.0065128 -8.75116972e-16 19.8830036 -8.75116972e-16 20.0068556 1.321254 20.0068556 3.02646216 19.9973285 3.73790662"></polygon>
                    <path d="M12.8502182,6.89705882 L12.0041133,0.10739365 L13.165929,0.10739365 L13.8731212,5.89471809 C14.3109068,5.85494267 14.7171214,5.7694255 15.0917648,5.6381666 C15.4664083,5.50690769 15.7884333,5.31996319 16.0578398,5.0773331 C16.3272464,4.834703 16.5335107,4.52843222 16.676633,4.15852076 C16.8197552,3.7886093 16.8828973,3.34909085 16.8660594,2.8399654 L16.8660594,2.51778445 C16.8660594,2.21549121 16.8113362,1.94899586 16.7018898,1.71829839 C16.5924434,1.48760092 16.4240643,1.30065642 16.1967526,1.15746489 C15.9694408,1.01427336 15.6789869,0.930744962 15.3253908,0.906879707 L14.6939692,0.871081824 L14.7823683,0 L15.5021888,0.0477305109 C15.9904882,0.0715957663 16.4177501,0.171034331 16.7839746,0.346046204 C17.1501991,0.521058077 17.4385483,0.775620802 17.6490222,1.10973438 C17.859496,1.44384795 17.9731519,1.86944501 17.9899898,2.38652554 L18.0026183,2.72063912 C18.0278751,3.44455187 17.9184287,4.06504851 17.674279,4.58212905 C17.4301294,5.09920958 17.0744286,5.52082909 16.6071766,5.84698758 C16.1399246,6.17314608 15.5863784,6.42174249 14.9465379,6.59277682 C14.3066973,6.76381115 13.6079241,6.86523848 12.8502182,6.89705882 Z" id="Path"></path>
                    <path d="M9.96970837,6.89705882 L9.96970837,2.40595075 C9.96970837,1.39421762 9.59879475,0.888351047 8.85696752,0.888351047 L6.00205667,0.888351047 L6.00205667,-8.75116972e-16 L9.10424326,-8.75116972e-16 C9.49388989,-8.75116972e-16 9.83108408,0.0884238311 10.1158258,0.265271493 C10.4005676,0.442119155 10.6197438,0.711503385 10.7733545,1.07342418 C10.9269652,1.43534498 11.0037706,1.89597145 11.0037706,2.45530359 L11.0037706,6.89705882 L9.96970837,6.89705882 Z M6.00205667,6.89705882 L6.00205667,4.57150657e-16 L7.00239945,4.57150657e-16 L7.00239945,6.89705882 L6.00205667,6.89705882 Z" id="Shape"></path>
                    <polygon id="Path" points="3.1248803 6.89705882 3.1248803 1.44357045 3.00102834 -8.75116972e-16 3.87751915 -8.75116972e-16 4.00137111 1.44357045 4.00137111 6.89705882"></polygon>
                    <polygon id="Path" points="0.123851963 8.86764706 0.123851963 1.36694955 1.02952952e-13 -8.75116972e-16 0.876490815 -8.75116972e-16 1.00034278 1.36694955 1.00034278 8.86764706"></polygon>
                </g>
                <g id="MINISTRY-OF-DEFENCE-Copy" transform="translate(1.000343, 21.676471)" fill="#FFFFFF" fill-rule="nonzero">
                    <path d="M1.23499119e-13,7.88235294 L1.23499119e-13,2.62535092e-15 L1.33439554,2.62535092e-15 L2.91025313,4.15746055 C3.01192136,4.42180775 3.1114715,4.69216284 3.20890356,4.96852582 C3.30633561,5.24488881 3.40164958,5.51924916 3.49484546,5.79160689 L3.54567958,5.79160689 C3.64734781,5.51924916 3.74266177,5.24488881 3.83162148,4.96852582 C3.92058118,4.69216284 4.01589515,4.42180775 4.11756338,4.15746055 L5.68071244,2.62535092e-15 L7.00239945,2.62535092e-15 L7.00239945,7.88235294 L5.9730086,7.88235294 L5.9730086,3.64078192 C5.9730086,3.40847681 5.98148096,3.15614538 5.99842566,2.88378766 C6.01537037,2.61142994 6.03443316,2.33506695 6.05561404,2.05469871 C6.07679492,1.77433046 6.09585772,1.51799378 6.11280242,1.28568867 L6.06196831,1.28568867 L5.4011248,3.08805595 L3.85068427,7.08931133 L3.12629812,7.08931133 L1.57585759,3.08805595 L0.915014084,1.28568867 L0.864179968,1.28568867 C0.881124674,1.51799378 0.902305555,1.77433046 0.927722613,2.05469871 C0.953139671,2.33506695 0.972202464,2.61142994 0.984910993,2.88378766 C0.997619522,3.15614538 1.00397379,3.40847681 1.00397379,3.64078192 L1.00397379,7.88235294 L1.23499119e-13,7.88235294 Z" id="Path"></path>
                    <polygon id="Path" points="9.00308501 7.88235294 9.00308501 2.62535092e-15 10.0034278 2.62535092e-15 10.0034278 7.88235294"></polygon>
                    <path d="M12.0041133,7.88235294 L12.0041133,2.62535092e-15 L13.1662137,2.62535092e-15 L16.128931,4.87840746 L17.0356247,6.52456958 L17.086706,6.52456958 C17.0611653,6.12404352 17.0313679,5.70549378 16.9973137,5.26892037 C16.9632595,4.83234696 16.9462323,4.4057867 16.9462323,3.9892396 L16.9462323,2.62535092e-15 L18.00617,2.62535092e-15 L18.00617,7.88235294 L16.8440697,7.88235294 L13.8813523,2.9919297 L12.9746587,1.35778336 L12.9235773,1.35778336 C12.9576316,1.75830942 12.9895574,2.16884864 13.0193548,2.589401 C13.0491523,3.00995337 13.064051,3.42850311 13.064051,3.84505022 L13.064051,7.88235294 L12.0041133,7.88235294 Z" id="Path"></path>
                    <polygon id="Path" points="20.0068556 7.88235294 20.0068556 2.62535092e-15 21.0071983 2.62535092e-15 21.0071983 7.88235294"></polygon>
                    <path d="M24.53588,7.88235294 C24.0375408,7.88235294 23.5721798,7.77995963 23.1397972,7.57517301 C22.7074146,7.37038639 22.3299959,7.09798155 22.0075411,6.75795848 L22.5791656,6.05086505 C22.8429922,6.33679354 23.1452936,6.56476355 23.4860697,6.73477509 C23.8268458,6.90478662 24.1841111,6.98979239 24.5578656,6.98979239 C25.0195622,6.98979239 25.3804918,6.87967128 25.6406542,6.65942907 C25.9008166,6.43918685 26.0308978,6.14746251 26.0308978,5.78425606 C26.0308978,5.52923875 25.977766,5.32638408 25.8715025,5.17569204 C25.765239,5.025 25.6223329,4.89749135 25.4427842,4.79316609 C25.2632355,4.68884083 25.0598691,4.58258362 24.832685,4.47439446 L23.8103567,3.99913495 C23.5831726,3.89867359 23.3578207,3.76536909 23.1343008,3.59922145 C22.910781,3.43307382 22.7239038,3.2244233 22.5736692,2.9732699 C22.4234346,2.72211649 22.3483172,2.41107266 22.3483172,2.04013841 C22.3483172,1.64602076 22.4472522,1.29633795 22.6451222,0.991089965 C22.8429922,0.685841984 23.1141474,0.444348328 23.4585878,0.266608997 C23.8030282,0.0888696655 24.1951039,0 24.634815,0 C25.0671976,0 25.468434,0.0869377163 25.8385242,0.260813149 C26.2086144,0.434688581 26.5219085,0.664590542 26.7784067,0.950519031 L26.2617461,1.59965398 C26.0418906,1.38327566 25.7982173,1.21133218 25.5307264,1.08382353 C25.2632355,0.956314879 24.9645984,0.892560554 24.634815,0.892560554 C24.239075,0.892560554 23.9221166,0.989158016 23.6839397,1.18235294 C23.4457629,1.37554787 23.3266745,1.63829296 23.3266745,1.97058824 C23.3266745,2.21014994 23.3853026,2.40527682 23.5025589,2.55596886 C23.6198152,2.7066609 23.7700498,2.83030565 23.9532628,2.92690311 C24.1364758,3.02350058 24.323353,3.11816609 24.5138945,3.21089965 L25.52523,3.67456747 C25.8110422,3.79821223 26.0638761,3.94697232 26.2837317,4.12084775 C26.5035872,4.29472318 26.6794717,4.50916955 26.811385,4.76418685 C26.9432984,5.01920415 27.009255,5.33217993 27.009255,5.70311419 C27.009255,6.10495963 26.91032,6.47202999 26.71245,6.80432526 C26.51458,7.13662053 26.2305999,7.39936563 25.8605097,7.59256055 C25.4904196,7.78575548 25.0488763,7.88235294 24.53588,7.88235294 Z" id="Path"></path>
                    <polygon id="Path" points="30.4627205 7.88235294 30.4627205 0.889167862 28.0095978 0.889167862 28.0095978 2.62535092e-15 34.0116545 2.62535092e-15 34.0116545 0.889167862 31.5585317 0.889167862 31.5585317 7.88235294"></polygon>
                    <path d="M36.01234,7.88235294 L36.01234,-9.27362762e-16 L38.3707791,-9.27362762e-16 C38.8796855,-9.27362762e-16 39.3335236,0.0700920612 39.7322935,0.210276184 C40.1310634,0.350460306 40.4443826,0.584768054 40.6722511,0.913199426 C40.9001197,1.2416308 41.0140539,1.68220947 41.0140539,2.23493544 C41.0140539,2.76362984 40.9001197,3.20220588 40.6722511,3.55066356 C40.4443826,3.89912123 40.1310634,4.15946318 39.7322935,4.33168938 C39.3335236,4.50391559 38.8796855,4.59002869 38.3707791,4.59002869 L37.0149615,4.59002869 L37.0149615,7.88235294 L36.01234,7.88235294 Z M39.89843,7.88235294 L38.0130256,4.47809037 L38.7716498,3.94117647 L41.0140539,7.88235294 L39.89843,7.88235294 Z M37.0126828,3.94117647 L38.2336335,3.94117647 C38.8117784,3.94117647 39.2529942,3.81337682 39.557281,3.5577775 C39.8615678,3.30217819 40.0137111,2.91877923 40.0137111,2.40758061 C40.0137111,1.87989171 39.8615678,1.51092173 39.557281,1.30067069 C39.2529942,1.09041964 38.8117784,0.985294118 38.2336335,0.985294118 L37.0126828,0.985294118 L37.0126828,3.94117647 Z" id="Shape"></path>
                    <path d="M43.4745244,7.88235294 L43.4745244,4.84236011 L41.0140539,2.62535092e-15 L42.182156,2.62535092e-15 L43.2135654,2.19888809 C43.346116,2.48726686 43.4745244,2.77164036 43.5987905,3.05200861 C43.7230567,3.33237685 43.8556073,3.62075562 43.9964423,3.91714491 L44.0461488,3.91714491 C44.1869838,3.62075562 44.3257477,3.33237685 44.4624405,3.05200861 C44.5991333,2.77164036 44.7296128,2.48726686 44.853879,2.19888809 L45.8852883,2.62535092e-15 L47.0161106,2.62535092e-15 L44.5680668,4.84236011 L44.5680668,7.88235294 L43.4745244,7.88235294 Z" id="Path"></path>
                    <path d="M53.5245575,7.88235294 C52.8363406,7.88235294 52.2289685,7.72200115 51.7024411,7.40129758 C51.1759137,7.080594 50.7633982,6.62272203 50.4648945,6.02768166 C50.1663908,5.43264129 50.0171389,4.72941176 50.0171389,3.91799308 C50.0171389,3.0988466 50.1663908,2.39754902 50.4648945,1.81410035 C50.7633982,1.23065167 51.1759137,0.782439446 51.7024411,0.469463668 C52.2289685,0.156487889 52.8363406,0 53.5245575,0 C54.2127744,0 54.8201465,0.156487889 55.3466739,0.469463668 C55.8732012,0.782439446 56.2836438,1.23065167 56.5780016,1.81410035 C56.8723595,2.39754902 57.0195384,3.0988466 57.0195384,3.91799308 C57.0195384,4.72941176 56.8723595,5.43264129 56.5780016,6.02768166 C56.2836438,6.62272203 55.8732012,7.080594 55.3466739,7.40129758 C54.8201465,7.72200115 54.2127744,7.88235294 53.5245575,7.88235294 Z M53.5183386,6.89705882 C54.0158913,6.89705882 54.4523411,6.77342876 54.8276878,6.52616864 C55.2030346,6.27890852 55.4954559,5.93236972 55.7049518,5.48655223 C55.9144477,5.04073473 56.0191956,4.51811675 56.0191956,3.91869828 C56.0191956,3.31178707 55.9144477,2.78916909 55.7049518,2.35084433 C55.4954559,1.91251957 55.2030346,1.57534668 54.8276878,1.33932565 C54.4523411,1.10330463 54.0158913,0.985294118 53.5183386,0.985294118 C53.012057,0.985294118 52.5712427,1.10330463 52.195896,1.33932565 C51.8205492,1.57534668 51.5303101,1.91251957 51.3251788,2.35084433 C51.1200474,2.78916909 51.0174817,3.31178707 51.0174817,3.91869828 C51.0174817,4.51811675 51.1200474,5.04073473 51.3251788,5.48655223 C51.5303101,5.93236972 51.8205492,6.27890852 52.195896,6.52616864 C52.5712427,6.77342876 53.012057,6.89705882 53.5183386,6.89705882 Z" id="Shape"></path>
                    <polygon id="Path" points="59.0202239 7.88235294 59.0202239 2.62535092e-15 64.0219378 2.62535092e-15 64.0219378 0.889167862 60.1754754 0.889167862 60.1754754 3.49659254 63.4311842 3.49659254 63.4311842 4.3857604 60.1754754 4.3857604 60.1754754 7.88235294"></polygon>
                    <path d="M67.0229662,7.88235294 L67.0229662,2.62535092e-15 L69.0991493,2.62535092e-15 C69.9463998,2.62535092e-15 70.6615295,0.150197274 71.2445385,0.450591822 C71.8275475,0.75098637 72.2700471,1.19356767 72.5720374,1.77833572 C72.8740277,2.36310378 73.0250228,3.07604017 73.0250228,3.91714491 C73.0250228,4.75023912 72.8740277,5.46317551 72.5720374,6.05595409 C72.2700471,6.64873266 71.8317418,7.10132712 71.2571214,7.41373745 C70.6825011,7.72614778 69.9799542,7.88235294 69.149481,7.88235294 L67.0229662,7.88235294 Z M68.0233089,6.89705882 L68.9766557,6.89705882 C69.6480267,6.89705882 70.2097405,6.77967027 70.6617969,6.54489315 C71.1138534,6.31011604 71.4540147,5.97142119 71.6822808,5.52880859 C71.910547,5.086196 72.02468,4.54928768 72.02468,3.91808364 C72.02468,3.27918199 71.910547,2.74227367 71.6822808,2.30735869 C71.4540147,1.8724437 71.1138534,1.54337086 70.6617969,1.32014017 C70.2097405,1.09690947 69.6480267,0.985294118 68.9766557,0.985294118 L68.0233089,0.985294118 L68.0233089,6.89705882 Z" id="Shape"></path>
                    <polygon id="Path" points="74.0253656 7.88235294 74.0253656 2.62535092e-15 78.8988304 2.62535092e-15 78.8988304 0.889167862 75.1539575 0.889167862 75.1539575 3.30434003 78.3217096 3.30434003 78.3217096 4.19350789 75.1539575 4.19350789 75.1539575 6.99318508 79.0270795 6.99318508 79.0270795 7.88235294"></polygon>
                    <polygon id="Path" points="81.0277651 7.88235294 81.0277651 2.62535092e-15 86.0294789 2.62535092e-15 86.0294789 0.889167862 82.1830166 0.889167862 82.1830166 3.49659254 85.4387253 3.49659254 85.4387253 4.3857604 82.1830166 4.3857604 82.1830166 7.88235294"></polygon>
                    <polygon id="Path" points="86.0294789 7.88235294 86.0294789 2.62535092e-15 90.9029438 2.62535092e-15 90.9029438 0.889167862 87.1580708 0.889167862 87.1580708 3.30434003 90.3258229 3.30434003 90.3258229 4.19350789 87.1580708 4.19350789 87.1580708 6.99318508 91.0311928 6.99318508 91.0311928 7.88235294"></polygon>
                    <path d="M93.0318784,7.88235294 L93.0318784,2.62535092e-15 L94.1939787,2.62535092e-15 L97.1566961,4.87840746 L98.0633897,6.52456958 L98.1144711,6.52456958 C98.0889304,6.12404352 98.059133,5.70549378 98.0250787,5.26892037 C97.9910245,4.83234696 97.9739974,4.4057867 97.9739974,3.9892396 L97.9739974,2.62535092e-15 L99.0339351,2.62535092e-15 L99.0339351,7.88235294 L97.8718347,7.88235294 L94.9091174,2.9919297 L94.0024237,1.35778336 L93.9513424,1.35778336 C93.9853966,1.75830942 94.0173225,2.16884864 94.0471199,2.589401 C94.0769173,3.00995337 94.0918161,3.42850311 94.0918161,3.84505022 L94.0918161,7.88235294 L93.0318784,7.88235294 Z" id="Path"></path>
                    <path d="M103.556957,7.88235294 C102.894154,7.88235294 102.294766,7.727797 101.758795,7.41868512 C101.222824,7.10957324 100.801412,6.66136101 100.494558,6.07404844 C100.187705,5.48673587 100.034278,4.77964245 100.034278,3.95276817 C100.034278,3.33454441 100.124288,2.78200692 100.304309,2.29515571 C100.48433,1.8083045 100.737995,1.39293541 101.065306,1.04904844 C101.392617,0.705161476 101.773115,0.444348328 102.206801,0.266608997 C102.640488,0.0888696655 103.115088,0 103.630602,0 C104.121568,0 104.5573,0.0946655133 104.937799,0.28399654 C105.318297,0.473327566 105.623105,0.691637832 105.852222,0.938927336 L105.263063,1.59965398 C105.050312,1.39100346 104.813011,1.22099193 104.551163,1.08961938 C104.289315,0.958246828 103.986552,0.892560554 103.642876,0.892560554 C103.143728,0.892560554 102.707996,1.01620531 102.33568,1.26349481 C101.963364,1.51078431 101.672876,1.86046713 101.464216,2.31254325 C101.255555,2.76461938 101.151225,3.29976932 101.151225,3.91799308 C101.151225,4.55167243 101.251464,5.09648212 101.451942,5.55242215 C101.652419,6.00836217 101.93677,6.36190888 102.304995,6.61306228 C102.673219,6.86421569 103.106905,6.98979239 103.606054,6.98979239 C103.990644,6.98979239 104.332274,6.91444637 104.630945,6.76375433 C104.929616,6.61306228 105.201693,6.40634371 105.447176,6.14359862 L106.036335,6.78114187 C105.72539,7.12889273 105.367394,7.39936563 104.962347,7.59256055 C104.5573,7.78575548 104.088837,7.88235294 103.556957,7.88235294 Z" id="Path"></path>
                    <polygon id="Path" points="107.036677 7.88235294 107.036677 2.62535092e-15 111.910142 2.62535092e-15 111.910142 0.889167862 108.165269 0.889167862 108.165269 3.30434003 111.333021 3.30434003 111.333021 4.19350789 108.165269 4.19350789 108.165269 6.99318508 112.038391 6.99318508 112.038391 7.88235294"></polygon>
                </g>
            </g>
        </g>
    </g>
</svg>