<?xml version="1.0" encoding="UTF-8"?>
<svg width="21px" height="21px" viewBox="0 0 21 21" version="1.1" xmlns="http://www.w3.org/2000/svg" xmlns:xlink="http://www.w3.org/1999/xlink">
    <title>718AE67C-0FD5-40E1-ACB9-63AF3FBDF3DE</title>
    <g id="Dynamic-Tender-Desktop" stroke="none" stroke-width="1" fill="none" fill-rule="evenodd">
        <g id="001e.-Contract-items---Updated-Leading-bid" transform="translate(-479.000000, -269.000000)">
            <g id="Components-/-Issue-/-Closed" transform="translate(250.000000, 259.000000)">
                <g id="Icons/Success/Default" transform="translate(227.000000, 8.000000)">
                    <g id="Group" transform="translate(2.000000, 2.000000)">
                        <rect id="Rectangle" fill="#45C6D4" x="0" y="0" width="21" height="21" rx="10.5"></rect>
                        <g id="!" transform="translate(9.000000, 5.000000)" fill="#FFFFFF" fill-rule="nonzero">
                            <path d="M0.696428571,7.81231672 L0.357142857,2.2170088 L0.285714286,0 L2.73214286,0 L2.64285714,2.2170088 L2.30357143,7.81231672 L0.696428571,7.81231672 Z M1.5,12 C1.08333333,12 0.729166667,11.8504399 0.4375,11.5513196 C0.145833333,11.2521994 0,10.8856305 0,10.4516129 C0,10.0058651 0.145833333,9.63636364 0.4375,9.3431085 C0.729166667,9.04985337 1.08333333,8.90322581 1.5,8.90322581 C1.94047619,8.90322581 2.30059524,9.04985337 2.58035714,9.3431085 C2.86011905,9.63636364 3,10.0058651 3,10.4516129 C3,10.8856305 2.86011905,11.2521994 2.58035714,11.5513196 C2.30059524,11.8504399 1.94047619,12 1.5,12 Z" id="Shape"></path>
                        </g>
                    </g>
                </g>
            </g>
        </g>
    </g>
</svg>