<?xml version="1.0" encoding="UTF-8"?>
<svg width="1935px" height="2010px" viewBox="0 0 1935 2010" version="1.1" xmlns="http://www.w3.org/2000/svg" xmlns:xlink="http://www.w3.org/1999/xlink">
    <title>734D11DE-2193-4A3D-B7AC-601C19CA7031</title>
    <g id="Dynamic-Tender-Desktop" stroke="none" stroke-width="1" fill="none" fill-rule="evenodd" fill-opacity="0.15">
        <g id="BG" fill="#45C6D4">
            <g id="BG-Decoration-Left-Top">
                <path d="M0,0 L0,424.400419 C31.6838235,427.118519 56.7928257,420.59508 75.3270065,404.830102 C93.8611873,389.065124 229.085518,254.121757 481,0 L0,0 Z" id="Bottom"></path>
                <path d="M0,0 L0,266.269565 L17.2108014,292.614485 C65.3583208,366.314862 159.997815,384.125275 228.594028,332.395154 C249.021531,316.990264 265.597309,296.409936 276.852824,272.477496 L405,0 L0,0 Z" id="Top"></path>
            </g>
            <g id="BG-Decoration-Right-Side" transform="translate(1450.000000, 521.000000)">
                <path d="M485,42 L257.543709,133.282202 C165.305056,170.29904 114.242325,269.422507 137.658075,366.005698 L146.921947,404.20453 C296.846976,1022.18299 378.912641,1349.30688 393.118941,1385.5762 C408.835298,1425.69137 439.462318,1460.16597 485,1489 L485,42 Z" id="Bottom"></path>
                <path d="M485,0 C463.122628,9.09376201 438.017228,23.2162586 409.683801,42.3674897 C385.647952,58.613887 268.962385,169.831104 59.6271014,376.019142 C-10.2924076,444.888803 -19.8770139,554.30334 37.0042111,634.272698 L485,1269 L485,0 Z" id="Top"></path>
            </g>
        </g>
    </g>
</svg>